<svg viewBox="0 0 202 48" fill="none" xmlns="http://www.w3.org/2000/svg"><g clip-path="url(#clip0)"><path d="M51.074 14.266H43.82v-4.87h19.753v4.87H56.34v19.19h-5.266v-19.19zm8.618 10.009c0-5.266 3.708-9.599 9.042-9.599 6.1 0 8.89 4.779 8.89 10.01 0 .41 0 .89-.07 1.39H64.832a4.243 4.243 0 004.466 3.61 5.948 5.948 0 004.43-1.906l2.964 2.65a9.083 9.083 0 01-7.457 3.436c-5.488 0-9.536-3.88-9.536-9.591h-.007zm12.868-1.482c-.306-2.337-1.67-3.916-3.846-3.916-2.177 0-3.54 1.544-3.951 3.916h7.797zm7.359-7.77h5.175v2.616c1.196-1.55 2.726-2.963 5.349-2.963 3.916 0 6.197 2.615 6.197 6.844v11.936h-5.175v-10.28c0-2.476-1.155-3.75-3.137-3.75s-3.234 1.274-3.234 3.75v10.28h-5.175V15.024zm18.85 9.182c0-6.155 3.985-9.529 8.304-9.529a6.956 6.956 0 015.69 2.782V8.354h5.175v25.109h-5.175v-2.65a6.706 6.706 0 01-5.69 2.99c-4.257 0-8.305-3.373-8.305-9.598zm14.063 0c0-3.06-2.01-5.091-4.43-5.091-2.421 0-4.459 1.996-4.459 5.16 0 3.165 2.045 5.092 4.459 5.092 2.413 0 4.43-2.03 4.43-5.16zm6.643.07c0-5.266 3.714-9.599 9.042-9.599 6.1 0 8.889 4.779 8.889 10.01 0 .41-.035.89-.069 1.39h-12.701a4.248 4.248 0 004.465 3.61 5.949 5.949 0 004.445-1.906l2.963 2.65a9.08 9.08 0 01-7.456 3.436c-5.481 0-9.536-3.88-9.536-9.591h-.042zm12.875-1.482c-.306-2.337-1.67-3.916-3.854-3.916s-3.54 1.544-3.951 3.916h7.805zm7.352-7.77h5.174v3.715c1.058-2.546 2.783-4.173 5.829-4.062v5.502h-.271c-3.443 0-5.565 2.087-5.565 6.496v6.81h-5.174v-18.46h.007z" fill="#FF3214"/><path d="M148.34 33.456v-3.227h3.2v3.227h-3.2zm5.565-17.778h2.594v3.575c1.433-2.128 3.478-3.95 6.747-3.95 4.222 0 8.409 3.366 8.409 9.285 0 5.808-4.173 9.25-8.409 9.25a7.943 7.943 0 01-6.747-3.783v8.903h-2.622l.028-23.28zm15.086 8.875c0-4.173-2.859-6.879-6.197-6.879-3.339 0-6.365 2.782-6.365 6.914 0 4.131 3.096 6.879 6.365 6.879 3.408 0 6.197-2.546 6.197-6.914zm5.314-8.875h2.622v4.639c1.294-2.956 3.854-5.091 7.192-4.952v2.851h-.208c-3.847 0-6.956 2.783-6.956 8.152v7.088h-2.622V15.678h-.028zm9.042 8.91a9.183 9.183 0 0115.729-6.331 9.18 9.18 0 01-6.603 15.616 9.09 9.09 0 01-6.436-2.63 9.08 9.08 0 01-2.69-6.412v-.243zm15.664 0c0-3.819-2.824-6.956-6.538-6.956-3.714 0-6.434 3.13-6.434 6.956 0 3.825 2.782 6.913 6.503 6.913 3.722 0 6.476-3.095 6.476-6.913h-.007z" fill="#909090"/><path d="M6.26 8.145a1.329 1.329 0 011.064-.605h21.632s.055.048.083.048l4.87-3.742a6.83 6.83 0 00-4.988-1.752H7.289C3.332 2.094 0 4.814 0 8.854v4.744l6.26-5.453zm23.767 8.277l-.118 14.516v3.958l-2.706-2.664H7.289c-.695 0-.737-.598-.737-1.294v-15.56L0 16.256v14.683c0 4.041 3.339 6.733 7.29 6.733h17.687L36.17 48l-.146-38.387-5.996 6.809z" fill="#B1B1B1"/><path d="M0 17.952l6.26 5.704v-8.347L0 16.158v1.794z" fill="#605958"/><path d="M18.029 29.22L0 16.297l5.307-4.695 12.902 9.306L41.038.007 18.027 29.22z" fill="#FF3214"/></g><defs><clipPath id="clip0"><path fill="#fff" d="M0 0h201.717v48H0z"/></clipPath></defs></svg>